<svg width="870" height="251" viewBox="0 0 870 251" fill="none" xmlns="http://www.w3.org/2000/svg">
<g clip-path="url(#clip0_8_263)">
<path fill-rule="evenodd" clip-rule="evenodd" d="M125 227.228C177.932 227.228 222.354 182.343 222.354 125.072C222.354 67.8014 177.932 22.9164 125 22.9164C72.0678 22.9164 27.6457 67.8014 27.6457 125.072C27.6457 182.343 72.0678 227.228 125 227.228ZM125 250.072C191.384 250.072 245.199 194.108 245.199 125.072C245.199 56.0364 191.384 0.0720215 125 0.0720215C58.6161 0.0720215 4.80127 56.0364 4.80127 125.072C4.80127 194.108 58.6161 250.072 125 250.072Z" fill="#49492b"/>
<path fill-rule="evenodd" clip-rule="evenodd" d="M115.421 194.473C133.005 190.356 152.033 179.031 167.433 160.678C182.834 142.324 190.682 121.619 191.683 103.587C192.684 85.5614 186.944 71.5739 176.936 63.1764C166.929 54.779 152.157 51.5552 134.579 55.6707C116.995 59.7876 97.9669 71.1127 82.5666 89.4661C67.1662 107.819 59.3174 128.525 58.3164 146.557C57.3159 164.582 63.0557 178.57 73.0634 186.967C83.0711 195.365 97.8429 198.588 115.421 194.473ZM60.0109 202.523C92.0372 229.396 147.096 216.505 182.989 173.73C218.881 130.955 222.015 74.4942 189.989 47.621C157.963 20.7478 102.904 33.6386 67.0112 76.4135C31.1188 119.188 27.9846 175.649 60.0109 202.523Z" fill="#49492b"/>
<path d="M432.101 122.702C434.72 128.654 435.91 135.321 435.91 141.988C435.91 148.654 434.72 155.083 432.101 161.273C429.482 167.464 425.672 172.94 421.148 177.702C416.386 182.226 410.672 186.035 404.72 188.416C398.529 191.035 391.862 192.226 385.434 192.226C378.767 192.226 372.101 190.797 366.148 188.178C359.958 185.797 354.482 181.988 349.958 177.226C345.434 172.702 341.624 166.988 339.243 161.035C336.862 155.083 335.672 148.416 335.672 141.988C335.434 135.559 336.862 128.892 339.243 122.94C341.624 116.75 345.434 111.273 349.958 106.511C354.482 101.988 359.958 98.1782 366.148 95.5591C372.101 92.9401 378.767 91.7496 385.434 91.5115C398.529 91.5115 411.624 96.7496 421.148 106.273C425.672 110.797 429.482 116.511 432.101 122.702ZM405.196 161.75C410.196 156.511 413.291 149.369 413.291 141.988C413.291 134.607 410.196 127.464 405.196 122.226C399.958 116.988 392.815 113.892 385.434 113.654C377.815 113.654 370.434 116.512 365.196 121.75C359.72 126.988 356.624 134.369 356.624 141.988C356.624 149.607 359.72 156.988 365.196 162.226C370.434 167.464 377.815 170.321 385.434 170.083C392.815 170.083 399.958 166.988 405.196 161.75Z" fill="#49492b"/>
<path d="M480.196 77.9402C478.529 96.5116 477.101 115.083 476.862 133.416C476.624 138.178 476.624 142.464 476.624 146.988L477.101 153.654C477.101 156.035 477.339 157.94 477.577 160.321C478.291 168.654 480.196 176.988 483.291 183.892C486.624 191.035 491.148 196.512 497.101 200.321C503.291 204.131 510.672 206.273 519.005 206.988L517.339 227.94C514.72 227.702 512.101 227.464 509.482 226.988L505.434 226.273L503.529 226.035L501.386 225.321L497.339 224.131C496.148 223.654 494.72 223.178 493.529 222.702C490.91 221.75 488.291 220.083 485.672 218.654C475.91 212.702 467.815 203.178 463.529 193.178C458.767 183.178 456.386 172.702 455.434 162.464C455.196 160.083 454.958 157.464 454.958 154.845L454.72 147.464C454.72 142.702 454.482 137.702 454.72 132.94C455.196 113.892 456.862 94.8449 458.529 76.0354C460.434 57.2259 462.577 38.4164 465.196 19.6068L485.91 22.4639C484.72 33.1782 483.529 43.8924 482.339 54.8448L522.101 57.702L520.434 79.1306L480.434 75.5592C480.196 76.5116 480.196 77.2259 480.196 77.9402Z" fill="#49492b"/>
<path d="M645.745 143.178C645.983 147.226 645.745 151.273 645.745 155.321L644.316 190.321L623.364 189.369L624.316 166.273L624.554 154.845C624.792 151.035 624.792 147.464 624.554 143.892C624.316 136.75 623.602 129.845 621.697 124.131C620.506 121.512 619.316 119.131 617.887 116.988C616.221 115.321 614.554 113.654 612.411 112.464C608.126 110.083 601.459 108.892 595.983 109.369C590.506 109.607 585.268 111.988 580.983 115.559C576.459 119.131 572.887 124.131 570.268 129.845C567.887 135.797 566.221 141.988 565.983 148.416H565.745L563.126 197.702L540.983 196.273L551.459 28.1782L572.411 29.3686L568.602 97.702L570.03 96.5115C571.221 95.7972 572.173 95.0829 573.126 94.3686C575.268 93.1782 577.649 92.2258 579.792 91.0353C580.983 90.5591 582.173 90.321 583.364 89.8448C584.554 89.6067 585.745 89.1305 586.935 88.8925L590.745 88.1782L592.411 87.9401C593.126 87.9401 593.84 87.9401 594.316 87.702C596.935 87.702 599.316 87.4639 601.697 87.702L605.268 88.1782C606.459 88.4163 607.649 88.6544 608.84 88.8925C613.364 89.6067 618.125 91.2734 622.649 93.6544C627.411 96.2734 631.459 99.8448 634.792 103.892C637.887 108.178 640.03 112.702 641.697 117.226C644.792 126.273 645.506 134.845 645.745 143.178Z" fill="#49492b"/>
<path d="M757.538 138.178L747.3 138.654L688.014 140.559C688.49 142.94 689.442 144.845 690.395 146.988C690.633 147.464 691.109 148.178 691.347 148.892C691.823 149.369 692.3 150.083 692.776 150.797C693.252 151.273 693.728 151.988 694.204 152.464L694.919 153.416L695.633 154.131C697.776 156.273 700.633 157.94 703.49 159.607L705.633 160.559C706.347 161.035 707.3 161.273 708.014 161.511C709.681 161.988 711.347 162.702 713.014 163.178C719.919 164.845 727.538 165.321 735.395 165.321L736.347 186.035C727.062 186.511 717.538 186.273 708.014 184.131C705.633 183.654 703.014 182.94 700.633 181.988C699.442 181.75 698.252 181.273 697.062 180.797L693.728 179.131C692.538 178.654 691.347 177.94 690.157 177.226L688.49 176.273C687.776 176.035 687.3 175.559 686.823 175.083L683.49 172.94C682.538 171.988 681.585 171.035 680.395 170.083C676.585 166.511 673.014 161.988 670.633 157.226C668.014 152.226 666.347 147.226 665.395 141.988C665.157 140.559 665.157 139.369 664.919 137.94C664.919 136.75 664.681 135.321 664.681 134.131C664.681 132.94 664.681 131.75 664.681 130.321V126.75C665.157 121.511 665.871 116.511 667.538 111.512C669.204 106.273 671.823 101.273 675.395 96.7496C678.966 92.2258 683.49 88.1782 688.49 85.7972C693.728 83.1782 698.966 81.5115 704.204 80.7972C706.823 80.321 709.442 80.321 711.823 80.321C714.442 80.0829 717.061 80.321 719.919 80.5591C725.157 81.2734 730.871 82.9401 736.109 86.0353C741.109 88.8925 745.633 93.1782 748.728 97.9401C751.823 102.702 753.966 107.702 755.395 112.702C755.871 115.083 756.585 117.702 756.823 120.321C757.062 122.702 757.3 125.321 757.3 128.178L757.538 138.178ZM688.49 119.607L734.681 118.178C733.728 115.083 732.538 112.464 730.871 110.083C727.538 105.559 723.252 103.178 717.3 102.464C715.633 102.226 714.204 102.226 712.538 102.226C710.633 102.464 708.966 102.464 707.538 102.702C704.204 103.178 701.347 104.131 698.966 105.321C696.347 106.75 694.442 108.416 692.776 110.559C691.109 112.702 689.681 115.321 688.728 118.178C688.728 118.654 688.49 119.131 688.49 119.607Z" fill="#49492b"/>
<path d="M860.812 83.8925C863.193 84.8448 865.573 85.7972 867.478 86.9877L856.526 104.845C855.097 104.131 854.145 103.416 852.716 102.94C851.526 102.226 850.097 101.75 848.907 101.511C848.193 101.273 847.478 101.035 846.764 101.035C846.526 100.797 846.05 100.797 845.812 100.797L845.335 100.559H844.621C842.954 100.559 841.288 100.321 839.621 100.321C837.954 100.321 836.526 100.321 834.859 100.321C833.193 100.559 831.764 100.559 830.097 101.035L827.954 101.511L827.002 101.75L825.812 102.226L823.907 102.94C823.192 103.178 822.478 103.416 822.002 103.892C820.573 104.369 819.621 105.321 818.431 106.035C817.954 106.273 817.716 106.511 817.478 106.75L816.764 107.226C816.288 107.94 815.573 108.178 815.335 108.654L813.907 110.321C813.431 110.797 812.954 111.511 812.716 111.988C811.764 113.178 811.05 114.607 810.335 115.797C810.097 116.511 809.859 117.226 809.621 117.94C809.383 118.654 808.907 119.369 808.907 120.083L808.192 122.226C807.954 122.94 807.954 123.892 807.716 124.607C807.716 124.845 807.716 125.321 807.716 125.559V126.273C807.716 135.797 807.716 145.321 807.716 155.083C807.478 164.607 807.478 174.131 807.002 183.654H786.288C785.812 174.131 785.812 164.607 785.812 155.083C785.573 145.559 785.573 136.035 785.573 126.512V122.94C785.573 121.75 785.812 120.559 785.573 119.607C785.573 118.416 785.573 117.464 785.573 116.511C785.335 115.321 785.335 114.369 785.097 113.416C784.621 109.607 783.907 106.035 782.716 103.654C782.24 103.178 782.002 102.464 781.526 102.226L781.05 101.511C781.05 101.511 780.812 101.273 780.573 101.035L780.097 100.559C779.859 100.559 779.621 100.321 779.383 100.083C779.145 100.083 778.907 100.083 778.669 99.8448C778.431 99.8448 778.193 99.6067 777.954 99.3686C775.812 98.6544 772.24 98.4163 768.669 98.6544L766.05 77.9401C771.764 77.2258 777.954 76.9877 784.859 79.3686C785.812 79.3686 786.526 79.8448 787.478 80.321C788.431 80.5591 789.145 81.0353 790.097 81.5115C790.812 81.9877 791.526 82.4639 792.478 82.9401L793.669 83.8925L794.621 84.8448C795.335 85.321 796.05 86.0353 796.764 86.7496C797.478 87.2258 797.954 87.9401 798.431 88.6544C799.859 90.0829 800.573 91.7496 801.526 93.1782C801.764 93.4163 801.764 93.8925 802.002 94.1305C802.478 93.6544 803.193 93.1782 803.669 92.702C804.621 91.9877 805.335 91.0353 806.526 90.321C808.431 88.8925 810.573 87.4639 812.716 86.2734C813.907 85.7972 814.859 85.0829 816.05 84.6067L819.383 83.4163L821.05 82.702L822.954 82.4639L826.288 81.5115C828.669 81.0353 830.812 80.7972 833.192 80.5591C835.335 80.321 837.716 80.321 839.859 80.0829C842.24 80.321 844.383 80.321 846.526 80.5591H848.193C848.907 80.7972 849.621 80.7972 850.097 80.7972C851.288 81.0353 852.478 81.2734 853.669 81.5115C856.288 82.2258 858.669 82.9401 860.812 83.8925Z" fill="#49492b"/>
</g>
<defs>
<clipPath id="clip0_8_263">
<rect width="870" height="250" fill="#49492b" transform="translate(0 0.0720215)"/>
</clipPath>
</defs>
</svg>
